<?xml version="1.0" standalone="no"?>
<!DOCTYPE svg PUBLIC "-//W3C//DTD SVG 20010904//EN"
 "http://www.w3.org/TR/2001/REC-SVG-20010904/DTD/svg10.dtd">
<svg version="1.0" xmlns="http://www.w3.org/2000/svg"
 width="1024.000000pt" height="1024.000000pt" viewBox="0 0 1024.000000 1024.000000"
 preserveAspectRatio="xMidYMid meet">

<g transform="translate(0.000000,1024.000000) scale(0.100000,-0.100000)"
fill="#000000" stroke="none">
<path d="M4740 9365 c-231 -26 -445 -66 -615 -115 -38 -11 -104 -29 -145 -40
-153 -40 -438 -150 -625 -241 -149 -72 -320 -163 -345 -183 -8 -6 -28 -18 -45
-26 -44 -22 -231 -148 -342 -231 -541 -405 -968 -918 -1266 -1521 -297 -603
-437 -1202 -437 -1874 0 -403 44 -729 150 -1120 85 -311 211 -631 329 -833 23
-38 41 -74 41 -80 0 -8 -100 -11 -324 -11 -386 0 -368 8 -280 -121 123 -180
280 -406 316 -454 21 -27 38 -53 38 -57 0 -4 -15 -29 -32 -56 -18 -27 -88
-131 -155 -233 -68 -101 -131 -195 -140 -209 -91 -130 -93 -133 -76 -152 16
-17 60 -18 880 -18 475 0 869 -3 876 -6 7 -4 64 -44 127 -89 557 -395 1236
-664 1885 -750 299 -39 764 -44 1055 -11 490 56 985 203 1428 425 164 82 263
142 496 298 l199 133 862 0 c1006 0 924 -10 847 106 -64 96 -88 125 -97 116
-5 -4 -5 -2 -2 5 4 6 -13 40 -37 75 -25 35 -65 97 -90 138 -25 41 -67 109 -95
150 -55 84 -56 77 14 169 45 60 112 156 257 370 70 104 88 138 81 150 -9 14
-51 16 -319 19 -170 1 -314 4 -321 6 -7 3 19 65 71 168 165 325 293 704 370
1093 95 480 91 1111 -10 1615 -180 900 -684 1766 -1369 2355 -74 64 -325 257
-413 318 -171 120 -473 288 -702 389 -196 88 -441 176 -590 213 -144 37 -229
55 -300 66 -41 6 -78 13 -81 15 -4 2 -77 13 -162 24 -212 27 -726 36 -907 15z
m320 -335 c11 -11 20 -27 20 -35 0 -19 -35 -55 -54 -55 -41 0 -64 79 -28 99
25 15 40 13 62 -9z m690 -110 c15 -16 45 -59 66 -95 l39 -65 85 -1 c184 -3
190 -22 60 -197 -23 -31 -24 -35 -11 -90 30 -132 33 -162 21 -177 -17 -21 -38
-19 -139 14 l-89 28 -72 -48 c-132 -90 -150 -81 -150 75 -1 64 -5 107 -13 116
-7 9 -38 37 -71 63 -32 26 -68 59 -79 73 -19 25 -19 26 -1 44 11 11 63 32 117
47 l97 27 21 71 c27 91 55 145 75 145 9 0 28 -13 44 -30z m-1767 -4 c3 -7 9
-34 12 -60 7 -42 10 -46 35 -46 102 0 118 -76 18 -89 -41 -6 -42 -7 -52 -55
-17 -79 -69 -91 -81 -19 -12 68 -14 70 -56 76 -46 6 -69 22 -69 48 0 23 11 29
68 37 40 6 47 11 50 32 7 60 23 90 47 90 12 0 25 -6 28 -14z m885 -68 c7 -7
12 -24 12 -38 0 -31 -17 -50 -45 -50 -38 0 -56 39 -39 84 7 19 55 21 72 4z
m1857 -377 c54 -25 98 -67 126 -121 21 -39 24 -59 24 -151 l0 -107 27 23 c15
13 53 36 85 52 48 23 71 28 133 28 104 0 178 -42 220 -125 22 -44 34 -120 20
-120 -6 0 -9 4 -6 8 3 5 -11 8 -29 8 -42 -1 -46 -13 -8 -22 26 -7 26 -7 5 -15
-12 -5 -30 -6 -40 -3 -14 5 -14 4 -3 -4 12 -9 12 -13 2 -26 -11 -12 -11 -19
-2 -30 10 -12 8 -17 -8 -26 -12 -6 -21 -17 -21 -25 0 -7 -9 -17 -20 -20 -22
-7 -27 -31 -7 -38 9 -4 9 -6 0 -6 -6 -1 -14 3 -18 9 -8 12 -35 1 -35 -15 0
-19 28 -27 52 -14 11 6 22 9 24 6 2 -2 -17 -15 -43 -28 -27 -13 -50 -27 -53
-30 -4 -6 -90 -36 -195 -69 -16 -5 -102 -27 -190 -49 -88 -22 -180 -47 -204
-55 -24 -9 -45 -15 -47 -14 -1 2 -16 48 -34 103 -17 55 -40 125 -50 155 -35
107 -70 246 -78 317 -24 211 51 369 198 414 47 14 134 9 175 -10z m-1913 -47
c73 -26 372 -180 436 -225 185 -129 226 -160 327 -243 208 -171 309 -263 487
-442 149 -151 269 -294 246 -294 -7 0 -2 -6 12 -13 14 -7 25 -21 25 -31 0 -9
8 -22 18 -27 9 -6 17 -15 17 -22 0 -8 -3 -9 -8 -1 -14 20 -157 110 -251 158
-301 151 -627 221 -1031 220 -294 -1 -477 -31 -719 -118 -71 -26 -239 -131
-311 -196 l-35 -32 35 22 c143 89 437 201 625 239 470 95 1045 11 1429 -209
105 -60 267 -184 362 -276 91 -89 177 -201 167 -217 -3 -5 -1 -7 5 -4 6 4 28
-30 55 -85 135 -277 190 -543 160 -787 l-6 -55 -27 100 c-34 124 -60 188 -112
278 -149 257 -387 461 -689 590 -612 263 -1512 205 -2034 -129 -208 -133 -406
-352 -495 -548 -34 -75 -80 -229 -81 -272 l0 -30 -11 25 c-5 14 -12 81 -15
150 -14 326 105 644 336 894 l36 39 -35 -24 c-19 -13 -65 -54 -102 -92 -38
-37 -68 -65 -68 -62 0 16 68 148 107 210 132 205 248 329 523 560 218 183 324
288 390 388 59 89 138 252 155 322 25 98 17 142 -16 96 -40 -54 -124 -146
-132 -143 -4 1 -6 -2 -2 -8 8 -13 -19 -52 -30 -42 -4 4 -6 0 -3 -8 3 -8 -2
-22 -9 -30 -67 -72 -105 -106 -148 -128 -43 -23 -62 -27 -135 -27 -78 0 -90 3
-145 33 -33 19 -76 47 -95 64 l-35 30 33 -16 c17 -9 32 -13 32 -8 0 5 -18 15
-41 22 -27 9 -60 35 -100 78 -33 35 -58 66 -56 68 2 3 26 -5 53 -17 36 -17 70
-22 129 -23 103 -1 133 14 246 121 134 126 226 179 344 197 46 6 141 -3 187
-20z m-1101 -94 c30 -11 65 -30 79 -41 l25 -21 -35 7 c-43 8 -42 8 -109 -5
-193 -40 -315 -223 -268 -403 38 -144 180 -240 293 -197 18 7 30 7 40 -1 7 -6
18 -8 25 -4 8 5 9 1 5 -13 -7 -20 15 -52 35 -52 13 0 11 -34 -3 -50 -10 -11
-9 -11 7 0 11 8 30 26 42 40 21 23 21 25 5 31 -9 4 -20 5 -25 2 -10 -6 -47 7
-47 16 0 4 23 6 50 5 32 -2 50 1 50 8 0 6 3 9 6 6 10 -10 -25 -78 -58 -113
-18 -20 -59 -45 -95 -60 -110 -44 -233 -29 -336 39 -155 103 -235 281 -208
464 40 274 283 433 522 342z m-900 -186 c7 -9 15 -34 18 -57 5 -36 10 -42 37
-48 44 -8 54 -17 54 -44 0 -20 -7 -25 -42 -32 -41 -8 -43 -10 -49 -52 -5 -38
-20 -60 -41 -61 -11 0 -25 31 -33 72 -6 34 -10 36 -52 43 -73 11 -71 65 3 75
37 5 39 7 47 50 13 67 32 85 58 54z m3179 -45 c9 -15 8 -24 -1 -35 -18 -22
-53 -13 -57 15 -6 40 39 56 58 20z m-2170 -134 c65 -34 101 -104 99 -197 -1
-53 -2 -57 -8 -28 -8 39 -59 134 -97 179 -13 16 -37 34 -54 41 -16 7 -30 17
-30 22 0 11 54 1 90 -17z m3500 -75 c0 -5 -4 -10 -10 -10 -5 0 -10 5 -10 10 0
6 5 10 10 10 6 0 10 -4 10 -10z m-3495 -50 c3 -5 1 -10 -4 -10 -6 0 -11 5 -11
10 0 6 2 10 4 10 3 0 8 -4 11 -10z m3425 -60 c0 -5 -4 -10 -10 -10 -5 0 -10 5
-10 10 0 6 5 10 10 10 6 0 10 -4 10 -10z m-3459 -63 l-23 -22 17 28 c10 15 20
25 23 22 3 -3 -5 -16 -17 -28z m98 -17 c0 -10 -3 -8 -9 5 -12 27 -12 43 0 25
5 -8 9 -22 9 -30z m-1339 -32 c11 -18 33 -66 48 -106 25 -69 29 -73 67 -84
156 -42 185 -54 185 -79 0 -10 -39 -53 -86 -96 l-86 -78 7 -82 c4 -45 4 -96 0
-113 -10 -43 -45 -40 -135 15 -41 24 -83 45 -92 45 -10 0 -51 -13 -93 -30 -42
-16 -89 -30 -105 -30 -28 0 -30 2 -30 41 0 22 7 78 16 124 l17 84 -39 46
c-133 156 -129 167 61 181 l92 7 33 61 c47 86 79 126 101 126 11 0 28 -14 39
-32z m1295 12 c3 -5 1 -10 -4 -10 -6 0 -11 5 -11 10 0 6 2 10 4 10 3 0 8 -4
11 -10z m3951 -101 c8 -22 19 -36 35 -39 14 -4 25 -14 27 -27 2 -16 -4 -22
-27 -26 -23 -5 -32 -13 -37 -34 -10 -46 -13 -53 -24 -53 -11 0 -14 7 -24 52
-5 20 -13 27 -34 30 -19 2 -28 9 -30 26 -3 18 2 23 27 28 22 5 31 12 31 26 0
28 19 60 33 55 7 -2 17 -19 23 -38z m-222 -162 c11 -8 17 -23 14 -38 -2 -19
-9 -24 -33 -24 -24 0 -31 5 -33 23 -3 22 13 52 27 52 4 0 15 -6 25 -13z m624
-245 c16 -31 37 -78 47 -105 14 -36 24 -49 44 -53 14 -3 64 -17 111 -32 109
-35 112 -47 33 -125 -32 -31 -68 -64 -81 -73 -22 -15 -23 -19 -16 -122 6 -101
5 -108 -15 -126 -21 -19 -22 -19 -63 0 -23 10 -67 34 -98 52 l-55 34 -45 -22
c-79 -39 -145 -59 -163 -48 -21 11 -22 74 -3 173 15 77 17 71 -47 141 -52 57
-87 105 -87 121 0 21 33 31 146 43 60 7 109 13 110 14 0 0 17 31 37 68 46 83
84 129 101 122 8 -3 27 -31 44 -62z m-4986 -14 c2 -13 15 -29 31 -36 33 -16
35 -28 4 -36 -13 -3 -29 -18 -36 -33 -13 -27 -14 -27 -21 -7 -5 12 -19 29 -32
38 l-23 16 28 25 c15 14 27 32 27 40 0 24 18 17 22 -7z m3999 -160 c7 -13 17
-43 24 -68 10 -42 15 -46 66 -65 30 -12 55 -28 57 -37 4 -21 -31 -44 -80 -52
-33 -6 -37 -10 -43 -46 -15 -90 -75 -106 -95 -27 -6 23 -13 47 -15 53 -2 6
-20 15 -40 18 -55 11 -85 27 -85 47 0 21 47 49 82 49 35 0 43 10 57 72 16 74
49 99 72 56z m-1861 -239 c339 -31 680 -145 880 -292 290 -214 427 -449 476
-816 7 -58 14 -111 14 -117 0 -7 29 -13 74 -16 95 -6 167 -41 239 -117 75 -78
100 -147 101 -272 1 -91 -1 -100 -34 -165 -29 -56 -46 -76 -90 -106 -66 -44
-146 -63 -236 -55 -36 2 -68 7 -71 10 -3 3 4 21 15 39 36 58 72 183 74 254 2
59 -1 69 -22 86 -14 12 -35 18 -53 16 -29 -3 -31 -7 -59 -103 -33 -116 -127
-314 -190 -400 -185 -251 -464 -442 -779 -534 -548 -159 -1175 -66 -1604 239
-107 76 -242 208 -309 303 -65 92 -148 270 -186 396 -16 58 -32 106 -33 108
-10 9 -79 -21 -88 -39 -25 -47 15 -230 72 -326 28 -48 16 -54 -106 -49 -155 5
-231 50 -291 174 -26 52 -29 68 -29 158 0 92 3 106 32 167 65 138 180 220 312
222 l68 1 7 72 c16 190 86 404 181 550 68 103 202 240 310 315 327 227 841
342 1325 297z m-2329 -35 l27 -26 14 21 c10 16 23 21 53 21 23 0 46 -5 53 -12
16 -16 15 -73 -2 -107 -18 -34 -101 -111 -120 -111 -20 0 -73 46 -107 94 -35
47 -38 97 -9 126 27 27 59 25 91 -6z m-1374 -9 c19 -8 45 -15 58 -15 35 0 36
-11 5 -47 -17 -18 -30 -45 -30 -58 0 -38 -16 -38 -40 -1 -11 19 -30 38 -40 41
-20 7 -25 31 -14 73 7 26 13 27 61 7z m213 -60 c15 -19 -3 -45 -31 -45 -23 0
-32 15 -24 40 7 24 37 26 55 5z m478 -39 c10 -14 33 -65 51 -114 l32 -90 72
-17 c135 -33 169 -54 148 -94 -5 -9 -44 -45 -85 -80 l-76 -62 0 -104 c0 -57
-3 -110 -6 -119 -11 -28 -53 -17 -133 34 -43 28 -85 50 -93 50 -8 0 -43 -11
-78 -25 -149 -58 -160 -49 -128 113 l21 109 -56 66 c-31 36 -63 78 -73 92 -27
42 -6 54 106 61 140 8 133 5 180 90 41 75 72 114 89 114 5 0 18 -11 29 -24z
m6350 -123 c6 -10 13 -37 17 -60 6 -40 8 -41 52 -50 83 -15 82 -65 -1 -77 -45
-7 -56 -20 -56 -73 0 -13 -10 -27 -22 -34 -18 -10 -24 -8 -40 11 -10 12 -18
35 -18 51 0 33 -6 38 -62 47 -35 6 -44 12 -46 31 -5 31 6 40 59 49 37 6 44 11
47 32 7 55 24 90 42 90 11 0 23 -8 28 -17z m-1376 -110 c24 -22 23 -48 -4 -67
-42 -29 -87 26 -52 65 21 23 32 24 56 2z m336 -86 c9 -11 15 -28 27 -93 4 -16
15 -23 47 -28 49 -8 68 -21 68 -47 0 -22 -28 -39 -64 -39 -34 0 -52 -21 -60
-69 -4 -28 -12 -42 -27 -46 -28 -9 -38 3 -53 61 -12 48 -12 48 -67 59 -48 9
-54 13 -54 35 0 28 34 50 78 50 29 0 47 28 47 72 0 21 26 58 40 58 4 0 12 -6
18 -13z m-4621 -183 c24 -27 25 -27 7 -60 -10 -19 -22 -34 -26 -34 -13 0 -68
56 -68 69 0 6 11 16 25 21 14 5 25 14 25 20 0 16 11 12 37 -16z m4151 -191 c7
-45 -63 -58 -79 -15 -6 17 -3 28 12 43 18 18 23 19 42 6 12 -8 23 -23 25 -34z
m-5695 22 c8 -7 18 -34 21 -60 7 -41 9 -45 36 -45 41 0 80 -20 80 -41 0 -22
-14 -31 -65 -44 -41 -10 -46 -18 -60 -88 -5 -24 -10 -28 -32 -25 -26 3 -33 13
-47 80 -5 22 -13 27 -48 33 -46 8 -68 20 -68 39 1 26 22 40 67 45 48 6 48 6
54 48 5 40 23 73 40 73 4 0 14 -7 22 -15z m6504 -13 c16 -12 29 -47 48 -122
53 -212 72 -250 127 -250 62 0 92 40 158 208 45 113 87 145 131 101 27 -27 23
-56 -25 -184 -63 -167 -63 -245 0 -245 33 0 50 9 158 90 50 37 102 72 114 79
49 26 101 -13 87 -66 -3 -14 -40 -61 -81 -104 -88 -92 -109 -133 -93 -178 24
-67 94 -69 274 -5 72 26 146 47 165 48 31 1 35 -2 38 -26 4 -32 9 -29 -208
-114 -181 -70 -205 -88 -161 -128 14 -13 52 -20 147 -28 150 -12 184 -25 184
-68 0 -47 -25 -54 -172 -46 -152 7 -178 0 -178 -50 0 -46 22 -59 219 -124 158
-52 166 -56 169 -83 2 -17 -2 -29 -11 -33 -8 -3 -86 17 -173 45 -88 28 -179
55 -203 60 -52 11 -81 0 -81 -31 0 -22 39 -80 77 -113 37 -33 73 -88 73 -112
0 -23 -26 -43 -57 -43 -10 0 -41 23 -68 51 -58 59 -92 79 -134 79 -60 0 -83
-59 -55 -142 9 -29 50 -129 91 -222 40 -94 73 -182 73 -196 0 -34 -39 -58 -71
-44 -13 6 -60 85 -131 219 -60 116 -119 220 -130 232 -31 33 -66 38 -93 13
-27 -25 -34 -57 -45 -203 -8 -115 -22 -147 -64 -147 -51 1 -64 41 -67 200 -1
118 -8 142 -41 154 -41 15 -70 -12 -118 -109 -68 -137 -100 -166 -142 -128
-27 24 -23 47 32 160 60 125 79 186 64 211 -12 19 -45 26 -80 18 -23 -6 -243
-151 -374 -246 -90 -66 -106 -73 -130 -60 -13 7 -20 21 -20 38 0 24 26 52 162
173 257 228 298 270 298 306 0 17 -7 37 -17 44 -22 19 -93 15 -183 -10 -99
-28 -124 -27 -149 5 -45 58 -17 88 127 137 121 41 142 57 142 104 0 48 -40 81
-170 137 -59 27 -118 57 -129 67 -27 25 -27 63 -1 89 24 24 39 21 148 -22 40
-15 105 -37 144 -48 64 -17 73 -18 99 -4 57 29 39 65 -120 238 -100 109 -113
141 -67 171 31 20 43 15 156 -70 128 -96 161 -115 201 -115 47 0 77 24 85 66
4 20 -1 87 -11 152 -30 194 -30 207 -4 226 29 20 39 20 66 -2z m-5979 -84 c31
-31 -11 -88 -50 -67 -34 18 -17 79 22 79 9 0 21 -5 28 -12z m889 -215 c6 -28
15 -39 33 -43 15 -4 26 -14 28 -27 2 -17 -4 -23 -27 -28 -25 -5 -31 -12 -31
-31 0 -14 -5 -34 -11 -45 -14 -27 -36 -9 -45 37 -5 29 -10 34 -34 34 -31 0
-47 25 -29 46 6 8 20 14 31 14 10 0 21 6 23 13 20 55 26 67 39 67 8 0 18 -16
23 -37z m-898 -12 c20 -20 54 -182 55 -266 1 -49 1 -50 -32 -53 -40 -4 -46 9
-91 178 l-30 115 25 23 c30 27 48 28 73 3z m549 -3 c29 -29 3 -84 -35 -76 -25
5 -40 52 -23 72 15 19 41 21 58 4z m-222 -74 c4 -15 -2 -62 -15 -113 -34 -135
-71 -180 -105 -129 -14 21 -13 33 8 130 13 59 29 115 36 123 7 8 25 15 41 15
22 0 30 -6 35 -26z m-588 -107 c35 -37 132 -180 132 -194 0 -8 -11 -19 -25
-25 -23 -11 -30 -8 -71 33 -64 63 -124 142 -124 165 0 46 53 59 88 21z m820
-23 c34 -23 27 -46 -36 -126 -84 -105 -93 -111 -120 -92 -33 23 -27 53 29 129
84 115 87 118 127 89z m-993 -183 c123 -69 165 -96 170 -108 6 -17 -16 -53
-32 -53 -18 0 -191 86 -214 105 -21 20 -25 55 -7 73 17 17 27 15 83 -17z
m1260 -25 c32 -48 8 -66 -190 -147 -86 -35 -102 -36 -117 -4 -16 35 0 49 132
119 118 62 151 68 175 32z m-589 -136 c52 -22 116 -85 146 -142 24 -47 30
-141 14 -228 -7 -42 -5 -49 33 -108 23 -34 41 -66 41 -70 0 -5 -27 -27 -60
-50 l-60 -41 -14 22 c-25 40 -83 142 -94 163 -9 17 -5 29 18 64 49 74 50 180
3 180 -15 0 -17 -7 -15 -48 3 -35 -2 -60 -17 -87 l-20 -37 -18 38 c-12 27 -26
40 -42 42 -23 4 -24 2 -19 -48 l5 -52 -31 6 c-17 4 -44 20 -61 36 -36 35 -55
38 -55 11 0 -29 49 -83 69 -76 8 3 12 2 7 -2 -4 -4 19 -12 51 -18 l58 -10 52
-95 c29 -52 52 -103 51 -113 -2 -10 -29 -32 -64 -52 l-62 -34 -11 58 c-15 77
-31 96 -114 137 -86 43 -139 91 -175 159 -37 69 -38 188 -4 255 76 145 241
205 388 140z m-767 -65 c64 -14 132 -30 152 -35 41 -11 55 -39 34 -67 -12 -16
-22 -16 -136 -4 -162 17 -197 26 -211 56 -9 19 -7 29 6 50 9 14 21 25 28 25 6
0 63 -11 127 -25z m1312 -62 c14 -38 -14 -57 -114 -73 -75 -12 -81 -12 -94 5
-29 40 -12 58 72 78 97 24 124 22 136 -10z m-1127 -179 c39 -38 12 -65 -94
-93 -89 -24 -110 -20 -110 25 0 32 34 52 116 68 38 8 70 15 71 15 1 1 9 -6 17
-15z m1111 -15 c116 -16 144 -26 151 -55 5 -19 1 -32 -14 -47 l-21 -21 -123
23 c-179 34 -188 37 -188 71 0 50 23 53 195 29z m4345 -153 c28 -35 -11 -93
-47 -70 -19 12 -28 46 -19 70 7 18 50 18 66 0z m-5388 -23 c37 -34 22 -51
-135 -157 -54 -36 -104 -66 -112 -66 -7 0 -23 12 -34 26 -32 41 -13 63 122
142 66 40 125 72 131 72 5 0 18 -7 28 -17z m932 -89 c3 -8 2 -13 -2 -10 -4 2
-8 -4 -8 -14 0 -14 3 -16 13 -8 9 7 13 7 13 0 0 -16 -49 -50 -208 -146 -168
-101 -270 -156 -289 -156 -7 0 -14 8 -14 18 -1 15 -2 16 -6 0 -6 -24 -33 -11
-33 17 0 24 57 68 145 113 22 11 112 61 200 111 88 50 165 91 171 91 7 0 15
-7 18 -16z m-804 -49 c14 -17 -8 -61 -87 -164 -62 -83 -76 -92 -104 -65 -25
25 -21 35 49 129 87 116 113 134 142 100z m5047 -64 c7 -19 19 -30 34 -33 37
-5 36 -36 -1 -49 -22 -8 -33 -19 -37 -41 -7 -35 -36 -35 -41 0 -3 16 -15 28
-38 38 -42 18 -43 32 -4 47 20 7 31 20 35 39 9 37 37 37 52 -1z m-4925 -2 c18
-10 20 -17 14 -63 -3 -28 -12 -72 -20 -96 -7 -25 -21 -71 -30 -102 -14 -47
-22 -59 -42 -64 -19 -5 -32 -1 -46 14 l-20 20 42 129 c38 118 62 173 76 173 3
0 15 -5 26 -11z m722 -34 c-10 -8 -23 -14 -29 -14 -5 0 -1 6 9 14 11 8 24 15
30 15 5 0 1 -7 -10 -15z m676 -24 c5 -11 10 -28 10 -39 0 -15 9 -21 35 -26 47
-9 49 -42 3 -54 -27 -7 -34 -15 -41 -45 -12 -49 -34 -47 -47 3 -9 32 -15 40
-34 40 -13 0 -30 7 -37 16 -11 14 -10 18 6 30 10 8 27 14 37 14 11 0 20 10 24
28 10 45 13 52 23 52 6 0 15 -9 21 -19z m-726 -5 c-3 -8 -13 -17 -22 -21 -13
-5 -13 -2 3 15 21 24 26 25 19 6z m156 -116 c13 -28 22 -51 19 -53 -83 -63
-131 -97 -140 -97 -6 0 -9 -6 -6 -12 2 -7 10 -31 18 -53 7 -22 14 -42 16 -44
3 -4 78 53 120 92 l32 30 31 -64 c32 -67 37 -89 20 -89 -8 0 -69 -38 -138 -86
-2 -1 4 -27 14 -58 l17 -55 34 27 c19 15 53 44 78 65 l44 38 21 -48 c39 -88
38 -93 -32 -140 -35 -23 -71 -45 -81 -49 -14 -5 -17 -13 -12 -33 8 -34 28 -81
35 -81 3 0 30 20 60 45 30 25 58 45 62 45 4 0 10 9 13 21 10 32 17 17 35 -81
l17 -90 -31 0 c-17 0 -98 9 -180 20 -81 11 -179 20 -217 20 l-69 0 -25 48
c-25 48 -37 67 -112 183 -22 35 -63 99 -90 142 -26 43 -71 114 -100 157 -37
57 -48 81 -40 88 7 6 50 31 97 57 47 26 124 70 172 96 48 27 95 49 105 49 17
-1 17 -1 -1 -15 -18 -13 -18 -18 -6 -54 22 -69 23 -69 97 -5 41 35 68 66 65
74 -7 25 34 -38 58 -90z m1267 52 c432 -307 1154 -391 1724 -201 116 38 311
132 403 193 81 54 69 57 192 -50 197 -172 335 -351 401 -520 36 -94 38 -209 5
-272 -60 -113 -235 -214 -375 -216 l-62 -1 -23 -51 c-44 -96 -133 -113 -216
-41 -17 14 -33 24 -38 21 -4 -3 -5 3 -1 12 4 11 2 15 -4 11 -6 -4 -13 -16 -16
-27 -4 -17 -2 -20 14 -15 10 4 19 3 19 -2 0 -5 -12 -10 -27 -11 -16 -1 -40 -7
-55 -13 -58 -24 -127 25 -149 105 -9 32 -11 34 -38 23 -58 -21 -122 61 -101
131 32 112 185 237 340 277 81 21 245 16 303 -9 55 -24 105 -18 130 16 17 22
19 33 11 55 -12 36 -55 59 -155 84 -207 53 -451 -11 -622 -162 -83 -72 -157
-187 -157 -242 0 -61 28 -57 -444 -57 l-432 0 -12 60 c-23 127 -163 279 -327
355 -131 60 -297 80 -431 50 -83 -18 -142 -43 -163 -69 -19 -23 -17 -63 5 -87
21 -23 56 -22 159 5 78 20 206 20 276 0 178 -52 339 -198 339 -308 0 -25 -9
-45 -31 -71 -34 -39 -53 -43 -87 -20 -19 14 -21 14 -16 1 9 -23 -14 -81 -42
-109 -14 -14 -43 -28 -66 -32 -47 -8 -128 11 -128 31 0 8 -4 14 -10 14 -5 0
-9 -6 -7 -12 1 -7 -19 -24 -46 -37 -81 -40 -162 -5 -186 81 l-12 43 -72 0
c-62 0 -82 5 -147 36 -41 20 -110 64 -152 98 -68 55 -80 69 -93 114 -8 28 -15
72 -15 98 0 146 135 376 341 581 80 80 210 188 225 188 2 0 34 -22 71 -48z
m3596 -163 c32 -16 87 -70 102 -99 14 -28 17 -83 4 -74 -5 3 -12 -2 -16 -11
-3 -10 -1 -20 4 -24 14 -8 14 -59 0 -68 -7 -4 -8 6 -4 28 l6 34 -14 -30 c-7
-16 -10 -32 -6 -35 10 -7 9 -50 -2 -50 -4 0 -5 -4 -2 -10 4 -6 -1 -7 -11 -3
-11 4 -13 8 -6 11 14 4 6 22 -9 22 -6 0 -7 -4 -4 -10 3 -5 1 -10 -5 -10 -7 0
-5 -7 4 -16 21 -21 20 -23 -6 -16 -16 4 -19 2 -13 -8 5 -8 4 -11 -2 -7 -5 3
-24 -3 -41 -14 -39 -23 -92 -25 -135 -3 -93 47 -137 109 -137 191 1 89 50 158
140 197 42 18 123 20 153 5z m-564 -85 c28 -35 26 -59 -4 -90 -29 -29 -58 -26
-87 8 -24 27 -23 63 2 88 28 28 64 25 89 -6z m1018 -151 c13 -19 12 -24 -6
-42 -12 -12 -27 -18 -36 -15 -21 8 -30 51 -15 70 17 19 39 15 57 -13z m-6327
-3 c11 -11 20 -28 20 -38 0 -28 -29 -62 -52 -62 -54 0 -79 74 -36 104 30 21
44 20 68 -4z m5997 -22 c-3 -8 -6 -5 -6 6 -1 11 2 17 5 13 3 -3 4 -12 1 -19z
m618 -104 c82 -88 -41 -209 -126 -125 -32 33 -36 58 -14 101 29 57 99 69 140
24z m-6363 -49 c9 -21 8 -28 -7 -45 -24 -26 -56 -22 -72 9 -17 35 0 61 38 61
22 0 32 -6 41 -25z m5363 -34 c24 -22 40 -42 37 -46 -4 -3 1 -3 11 1 32 12 29
-23 -6 -73 -25 -36 -42 -50 -68 -55 -141 -30 -183 -38 -187 -34 -4 5 158 246
166 246 3 0 24 -18 47 -39z m-4780 -306 c205 -23 508 -62 610 -80 150 -26 195
-41 234 -78 76 -71 241 -147 320 -147 25 0 43 -12 84 -54 64 -66 105 -81 195
-71 37 4 108 6 159 5 108 -2 165 18 206 72 18 23 40 37 71 46 47 12 111 61
121 91 3 10 11 18 18 19 6 0 230 1 496 3 l484 2 27 -38 c28 -41 81 -74 118
-75 14 0 39 -17 65 -46 62 -68 83 -76 195 -73 54 1 129 -2 167 -6 65 -6 74 -5
125 22 34 18 64 43 79 66 19 30 31 37 55 37 46 0 170 37 234 69 31 16 82 52
112 80 36 33 64 51 80 51 15 0 30 4 35 9 12 11 259 53 480 80 231 29 474 41
836 41 l319 0 0 -579 0 -580 -627 -4 c-674 -4 -611 0 -1102 -67 -119 -16 -252
-34 -296 -39 -44 -6 -260 -33 -480 -61 -505 -64 -700 -80 -1000 -80 -359 0
-683 34 -1670 175 -209 30 -441 59 -515 65 -74 5 -363 10 -642 10 l-508 0 0
581 0 582 388 -6 c244 -4 439 -12 527 -22z m-1065 -885 l0 -510 -276 0 c-315
0 -293 -10 -217 98 27 36 71 101 98 143 28 42 80 122 118 177 37 55 67 103 67
107 0 7 -63 103 -135 205 -70 99 -195 286 -195 291 0 2 121 3 270 1 l270 -3 0
-509z m7690 504 c0 -3 -26 -40 -58 -82 -72 -95 -242 -336 -266 -378 -18 -30
-18 -31 15 -85 18 -30 95 -146 171 -259 l139 -205 -263 -3 c-144 -1 -268 0
-275 3 -10 3 -13 111 -13 510 l0 505 275 0 c151 0 275 -3 275 -6z m-6448 -954
l3 -50 -542 0 c-603 0 -553 -6 -545 68 l4 32 538 0 538 0 4 -50z m5748 0 l0
-50 -550 0 -550 0 0 28 c0 15 3 37 6 49 l6 22 544 1 544 0 0 -50z m-1197 33
c-7 -2 -19 -2 -25 0 -7 3 -2 5 12 5 14 0 19 -2 13 -5z m-88 -13 c-11 -5 -42
-8 -70 -8 l-50 1 50 7 c28 4 59 7 70 8 l20 1 -20 -9z m103 -32 c-8 -12 -25
-28 -39 -37 -18 -11 -15 -5 11 22 40 42 49 47 28 15z m-4178 -4 c0 -2 -9 -4
-20 -4 -11 0 -20 4 -20 9 0 5 9 7 20 4 11 -3 20 -7 20 -9z m3919 4 c-2 -2 -17
-10 -34 -19 -16 -9 -29 -21 -27 -28 1 -7 -2 -10 -7 -7 -12 8 -41 -20 -41 -39
0 -7 7 -16 16 -19 12 -4 14 -14 9 -37 -7 -29 -6 -31 16 -24 13 4 -1 -11 -31
-33 -139 -100 -533 -265 -830 -347 -367 -101 -731 -143 -1145 -131 -571 16
-1072 134 -1552 367 -172 84 -320 170 -237 139 36 -14 41 -12 18 6 -13 11 -14
14 -3 11 9 -3 16 1 16 8 0 10 -5 11 -18 4 -25 -13 -29 -11 -23 6 8 20 -14 73
-35 85 -14 8 -14 10 -1 11 8 1 2 5 -15 9 l-30 7 25 10 c26 11 53 7 45 -7 -3
-4 1 -7 8 -6 6 0 125 -56 262 -125 383 -193 652 -282 1050 -348 377 -62 865
-60 1242 4 343 59 724 191 1032 358 258 140 286 155 290 151 2 -2 2 -5 0 -6z
m-270 -12 c-11 -11 -327 -148 -424 -185 -230 -86 -518 -154 -800 -188 -189
-22 -722 -25 -885 -5 -390 50 -637 111 -940 232 -165 66 -284 119 -279 125 2
2 80 -8 173 -21 381 -54 728 -96 971 -115 193 -16 677 -16 825 0 281 30 412
46 840 101 427 55 529 66 519 56z m402 -86 c-13 -11 -28 -20 -35 -20 -6 0 3 9
19 19 39 25 46 25 16 1z m-4191 -16 c0 -2 -9 0 -20 6 -11 6 -20 13 -20 16 0 2
9 0 20 -6 11 -6 20 -13 20 -16z m40 -14 c8 -5 11 -10 5 -10 -5 0 -17 5 -25 10
-8 5 -10 10 -5 10 6 0 17 -5 25 -10z m87 -16 c-3 -3 -12 -4 -19 -1 -8 3 -5 6
6 6 11 1 17 -2 13 -5z m30 -9 c0 -8 -4 -12 -9 -9 -5 3 -6 10 -3 15 9 13 12 11
12 -6z m3893 -5 c-20 -13 -33 -13 -25 0 3 6 14 10 23 10 15 0 15 -2 2 -10z"/>
<path d="M7341 8023 c0 -12 -9 -27 -18 -32 -17 -10 -17 -10 0 -11 20 0 31 20
24 47 -4 15 -5 14 -6 -4z"/>
<path d="M7215 7890 c4 -6 11 -8 16 -5 14 9 11 15 -7 15 -8 0 -12 -5 -9 -10z"/>
<path d="M6480 7859 c0 -5 5 -7 10 -4 6 3 10 8 10 11 0 2 -4 4 -10 4 -5 0 -10
-5 -10 -11z"/>
<path d="M7230 7845 c0 -8 -4 -15 -10 -15 -5 0 -10 -5 -10 -10 0 -6 8 -5 20 2
21 13 27 38 10 38 -5 0 -10 -7 -10 -15z"/>
<path d="M6435 7831 c-3 -5 -1 -12 5 -16 5 -3 10 1 10 9 0 18 -6 21 -15 7z"/>
<path d="M6515 7770 c-3 -6 1 -7 9 -4 18 7 21 14 7 14 -6 0 -13 -4 -16 -10z"/>
<path d="M7105 7770 c3 -5 8 -10 11 -10 2 0 4 5 4 10 0 6 -5 10 -11 10 -5 0
-7 -4 -4 -10z"/>
<path d="M7035 7730 c3 -5 8 -10 11 -10 2 0 4 5 4 10 0 6 -5 10 -11 10 -5 0
-7 -4 -4 -10z"/>
<path d="M7134 7723 c2 -10 11 -19 22 -20 10 -2 13 0 7 3 -7 3 -13 12 -13 20
0 8 -4 14 -9 14 -5 0 -8 -8 -7 -17z"/>
<path d="M7080 7726 c0 -2 7 -9 15 -16 12 -10 15 -10 15 4 0 9 -7 16 -15 16
-8 0 -15 -2 -15 -4z"/>
<path d="M6930 7700 c0 -5 5 -10 11 -10 5 0 7 5 4 10 -3 6 -8 10 -11 10 -2 0
-4 -4 -4 -10z"/>
<path d="M7012 7691 c7 -11 16 -17 20 -15 5 3 2 12 -6 20 -21 20 -28 17 -14
-5z"/>
<path d="M7050 7700 c0 -5 5 -10 10 -10 6 0 10 5 10 10 0 6 -4 10 -10 10 -5 0
-10 -4 -10 -10z"/>
<path d="M6945 7660 c3 -5 8 -10 11 -10 2 0 4 5 4 10 0 6 -5 10 -11 10 -5 0
-7 -4 -4 -10z"/>
<path d="M6855 7630 c3 -5 10 -10 16 -10 5 0 9 5 9 10 0 6 -7 10 -16 10 -8 0
-12 -4 -9 -10z"/>
<path d="M6738 7603 c7 -3 16 -2 19 1 4 3 -2 6 -13 5 -11 0 -14 -3 -6 -6z"/>
<path d="M4078 7993 c7 -3 16 -2 19 1 4 3 -2 6 -13 5 -11 0 -14 -3 -6 -6z"/>
<path d="M6320 7191 c0 -6 4 -13 10 -16 6 -3 7 1 4 9 -7 18 -14 21 -14 7z"/>
<path d="M3715 7640 c27 -12 43 -12 25 0 -8 5 -22 9 -30 9 -10 0 -8 -3 5 -9z"/>
<path d="M3770 7580 c0 -5 5 -10 10 -10 6 0 10 5 10 10 0 6 -4 10 -10 10 -5 0
-10 -4 -10 -10z"/>
<path d="M4227 6512 c-59 -21 -124 -83 -139 -134 -10 -35 -9 -41 9 -60 23 -23
17 -27 86 56 60 73 151 88 211 35 44 -38 80 -37 84 4 5 39 -19 71 -71 96 -52
25 -114 26 -180 3z"/>
<path d="M5867 6516 c-66 -24 -103 -69 -93 -112 7 -25 39 -33 51 -14 13 22 86
50 128 50 35 0 51 -7 85 -36 24 -20 49 -49 58 -65 18 -35 59 -40 69 -9 12 38
-7 83 -54 129 -67 68 -156 88 -244 57z"/>
<path d="M4268 6061 c-20 -4 -59 -19 -87 -33 -49 -24 -52 -24 -62 -7 -28 53
-95 42 -87 -14 3 -18 8 -40 12 -49 6 -13 -1 -26 -23 -48 l-31 -31 -32 24 c-46
34 -65 39 -83 21 -27 -28 -18 -62 25 -92 49 -34 50 -46 4 -39 -44 7 -74 -6
-74 -33 0 -25 34 -56 69 -63 28 -6 28 -7 29 -76 0 -66 24 -175 40 -184 4 -3 7
34 8 82 1 229 142 403 340 419 152 12 298 -59 387 -188 17 -24 41 -69 54 -100
l23 -55 0 40 c0 54 -25 157 -51 207 -34 67 -122 152 -188 182 -94 42 -184 54
-273 37z"/>
<path d="M5810 6060 c-107 -23 -218 -107 -272 -206 -31 -58 -58 -160 -57 -219
l0 -40 18 50 c39 109 127 207 230 258 61 30 74 32 166 32 88 0 107 -3 157 -27
76 -35 152 -112 188 -191 33 -69 54 -191 45 -249 -4 -21 -4 -38 -1 -38 13 0
46 138 46 196 0 53 3 66 18 70 47 14 67 31 70 58 5 37 -12 46 -65 39 -55 -7
-56 8 -3 42 32 20 40 31 40 55 0 20 -7 33 -21 41 -18 9 -27 6 -61 -21 l-40
-33 -34 35 c-34 34 -34 34 -20 69 13 32 13 38 0 57 -20 29 -48 28 -72 -4 l-19
-27 -65 26 c-74 30 -179 41 -248 27z"/>
<path d="M4274 5846 c-144 -46 -237 -186 -238 -356 0 -73 4 -94 28 -147 65
-143 235 -234 378 -203 100 21 201 88 248 165 34 55 52 128 52 209 0 68 -5 87
-32 142 -37 75 -98 140 -166 174 -40 20 -66 25 -139 27 -54 2 -106 -3 -131
-11z m33 -108 c34 -32 32 -90 -4 -118 -23 -18 -36 -21 -74 -16 -43 6 -46 5
-58 -21 -26 -59 -41 -75 -57 -62 -22 18 -17 43 16 84 23 29 30 48 30 81 0 33
5 46 22 58 33 24 97 20 125 -6z"/>
<path d="M5755 5847 c-89 -35 -155 -99 -202 -195 -38 -78 -44 -203 -13 -284
29 -79 104 -159 185 -199 59 -29 69 -31 152 -27 154 6 260 74 321 206 23 49
27 70 27 152 -1 83 -4 102 -28 152 -38 77 -104 143 -180 178 -54 26 -73 30
-147 29 -47 0 -98 -6 -115 -12z m33 -109 c29 -28 30 -83 0 -115 -23 -25 -74
-31 -107 -13 -16 8 -20 5 -24 -18 -3 -15 -15 -40 -27 -55 -18 -22 -25 -25 -36
-16 -20 17 -18 29 16 82 17 26 30 60 30 75 0 79 88 115 148 60z"/>
<path d="M4724 4895 c-15 -22 -15 -32 -5 -68 40 -135 176 -249 333 -278 182
-33 382 64 461 225 44 90 29 146 -40 146 -34 0 -52 -17 -78 -78 -24 -55 -102
-126 -162 -146 -102 -35 -226 -11 -299 56 -25 23 -59 68 -77 102 -31 58 -34
61 -74 64 -36 3 -44 -1 -59 -23z"/>
<path d="M2605 4430 c-3 -5 -2 -10 4 -10 5 0 13 5 16 10 3 6 2 10 -4 10 -5 0
-13 -4 -16 -10z"/>
<path d="M7538 3683 c7 -3 16 -2 19 1 4 3 -2 6 -13 5 -11 0 -14 -3 -6 -6z"/>
</g>
</svg>
