<?xml version="1.0" standalone="no"?>
<!DOCTYPE svg PUBLIC "-//W3C//DTD SVG 20010904//EN"
 "http://www.w3.org/TR/2001/REC-SVG-20010904/DTD/svg10.dtd">
<svg version="1.0" xmlns="http://www.w3.org/2000/svg"
 width="512.000000pt" height="512.000000pt" viewBox="0 0 512.000000 512.000000"
 preserveAspectRatio="xMidYMid meet">

<g transform="translate(0.000000,512.000000) scale(0.100000,-0.100000)"
fill="#000000" stroke="none">
<path d="M170 4955 l0 -85 410 0 410 0 0 85 0 85 -410 0 -410 0 0 -85z"/>
<path d="M330 4340 l0 -371 28 16 c15 9 126 76 247 148 l220 132 0 220 0 220
-247 3 -248 2 0 -370z"/>
<path d="M1670 4572 c-369 -214 -1478 -876 -1487 -890 -7 -8 -13 -30 -13 -47
0 -67 60 -101 122 -69 18 9 364 208 768 442 404 234 742 427 751 429 8 3 278
-149 599 -336 l583 -341 41 38 c23 20 53 46 68 57 l28 20 -618 370 -617 369
-70 4 c-68 3 -72 2 -155 -46z"/>
<path d="M1212 3906 c-326 -189 -596 -346 -599 -350 -4 -3 257 -6 578 -5 519
0 580 2 545 15 -90 33 -153 112 -163 206 -11 105 35 192 128 242 123 68 279
17 338 -109 25 -54 28 -149 5 -203 -26 -64 -92 -121 -164 -143 -14 -4 200 -8
476 -8 l500 -1 18 36 c9 21 13 40 9 45 -17 16 -1056 619 -1067 619 -6 0 -278
-155 -604 -344z"/>
<path d="M3719 4117 c-107 -30 -202 -115 -239 -213 -11 -30 -20 -61 -20 -69 0
-19 -8 -23 -95 -45 -179 -46 -306 -162 -368 -338 -17 -48 -20 -83 -21 -227 -1
-93 2 -178 6 -187 6 -15 12 -16 35 -7 15 6 48 14 72 17 l45 7 16 65 c9 36 24
82 34 102 38 78 134 167 216 198 47 18 55 26 43 42 -16 19 -57 138 -50 144 3
3 38 14 78 24 76 20 88 17 89 -21 0 -9 14 -43 30 -76 71 -142 229 -232 408
-233 l53 0 -45 58 c-64 82 -132 230 -114 248 6 6 151 45 154 41 0 -1 7 -24 14
-51 19 -71 83 -160 147 -206 89 -63 149 -82 291 -88 l122 -5 0 29 c0 59 -62
124 -132 139 -28 7 -28 7 -28 87 l0 81 49 -6 c101 -12 208 -94 254 -195 18
-40 22 -72 27 -212 l5 -165 40 -6 c22 -3 50 -9 62 -13 20 -6 23 -2 38 69 13
58 16 108 13 208 -4 116 -9 144 -38 229 -92 274 -296 469 -577 554 -83 26
-102 27 -328 30 -174 3 -253 0 -286 -9z"/>
<path d="M500 2395 l0 -995 80 0 80 0 0 495 0 495 495 0 495 0 0 -495 0 -495
30 0 c42 0 90 -21 134 -60 55 -49 79 -102 84 -192 l5 -78 163 0 164 0 0 68 c0
110 60 208 152 246 53 22 303 22 356 0 92 -38 152 -136 152 -246 l0 -68 164 0
163 0 5 78 c5 81 22 128 65 173 13 15 31 53 39 85 30 115 81 202 177 298 48
49 87 89 85 90 -2 1 -25 13 -52 28 -212 112 -338 290 -390 549 -5 23 -12 27
-54 31 -101 10 -204 85 -253 183 -31 65 -34 197 -5 262 18 40 18 42 -3 124
-17 68 -21 113 -21 251 l0 168 -1155 0 -1155 0 0 -995z m1070 495 l0 -250
-412 2 -413 3 -3 248 -2 247 415 0 415 0 0 -250z m990 -165 l0 -245 -330 0
-330 0 0 245 0 245 330 0 330 0 0 -245z m0 -825 l0 -250 -330 0 -330 0 0 250
0 250 330 0 330 0 0 -250z"/>
<path d="M3476 3274 c-33 -10 -64 -31 -97 -64 -78 -78 -82 -99 -77 -498 4
-312 6 -342 26 -402 65 -196 228 -349 423 -395 84 -19 329 -20 422 0 202 43
380 215 432 420 12 48 15 132 15 432 l0 373 -362 0 c-394 0 -439 5 -541 56
-28 15 -73 42 -100 60 -52 37 -69 40 -141 18z m238 -315 c53 -15 138 -100 154
-155 7 -23 12 -69 12 -103 l0 -61 -79 0 -79 0 -4 60 c-5 69 -24 96 -75 106
-27 5 -37 1 -63 -24 -26 -27 -30 -37 -30 -86 l0 -56 -80 0 -80 0 0 70 c0 114
43 190 132 234 57 29 124 34 192 15z m681 -8 c51 -23 118 -98 133 -149 7 -22
12 -67 12 -101 l0 -61 -79 0 -79 0 -4 60 c-5 69 -24 96 -75 106 -27 5 -37 1
-63 -24 -26 -27 -30 -37 -30 -86 l0 -56 -80 0 -80 0 0 73 c1 113 51 195 145
238 53 24 147 24 200 0z m-505 -701 c22 -11 54 -20 72 -20 51 1 115 35 139 74
l20 34 74 -25 c41 -14 75 -30 75 -37 0 -21 -55 -100 -91 -130 -97 -82 -234
-103 -346 -52 -63 30 -100 60 -144 120 -45 60 -40 71 44 99 l72 24 23 -34 c12
-18 40 -42 62 -53z"/>
<path d="M3063 2869 c-69 -34 -104 -112 -84 -186 12 -43 61 -96 104 -112 58
-22 57 -25 57 154 0 187 2 183 -77 144z"/>
<path d="M4790 2725 l0 -167 33 6 c73 14 127 82 127 161 0 79 -54 147 -127
161 l-33 7 0 -168z"/>
<path d="M830 1785 l0 -444 31 -44 c35 -49 48 -99 49 -174 l0 -53 165 0 165 0
0 61 c0 84 16 132 63 185 45 51 81 72 140 82 l42 8 3 412 2 412 -330 0 -330 0
0 -445z"/>
<path d="M3810 1707 c-83 -28 -159 -77 -210 -134 -42 -48 -83 -113 -94 -150
-7 -23 -6 -23 91 -23 118 0 161 -16 219 -83 48 -54 64 -102 64 -186 l0 -61
164 0 163 0 5 78 c7 123 60 199 164 238 27 9 51 19 52 20 2 1 -11 31 -30 66
-60 113 -174 206 -297 242 -81 24 -211 21 -291 -7z"/>
<path d="M444 1217 l-29 -25 -3 -471 -3 -471 -204 0 -205 0 0 -85 0 -85 2560
0 2560 0 0 85 0 85 -205 0 -204 0 -3 471 -3 471 -29 25 c-28 24 -34 25 -143
21 -107 -3 -116 -5 -134 -27 -18 -22 -19 -46 -19 -492 l0 -469 -330 0 -329 0
-3 471 -3 471 -29 25 c-28 24 -34 25 -143 21 -107 -3 -116 -5 -134 -27 -18
-22 -19 -46 -19 -492 l0 -469 -330 0 -330 0 0 450 c0 480 -2 504 -48 529 -12
6 -68 11 -126 11 -96 0 -107 -2 -133 -24 l-28 -24 -3 -471 -3 -471 -329 0
-330 0 0 469 c0 446 -1 470 -19 492 -18 22 -27 24 -134 27 -109 4 -115 3 -143
-21 l-29 -25 -3 -471 -3 -471 -329 0 -330 0 0 469 c0 446 -1 470 -19 492 -18
22 -27 24 -134 27 -109 4 -115 3 -143 -21z"/>
<path d="M910 825 l0 -85 165 0 165 0 0 85 0 85 -165 0 -165 0 0 -85z"/>
<path d="M1900 825 l0 -85 165 0 165 0 0 85 0 85 -165 0 -165 0 0 -85z"/>
<path d="M2890 825 l0 -85 165 0 165 0 0 85 0 85 -165 0 -165 0 0 -85z"/>
<path d="M3880 825 l0 -85 165 0 165 0 0 85 0 85 -165 0 -165 0 0 -85z"/>
</g>
</svg>
