<?xml version="1.0" standalone="no"?>
<!DOCTYPE svg PUBLIC "-//W3C//DTD SVG 20010904//EN"
 "http://www.w3.org/TR/2001/REC-SVG-20010904/DTD/svg10.dtd">
<svg version="1.0" xmlns="http://www.w3.org/2000/svg"
 width="1024.000000pt" height="1024.000000pt" viewBox="0 0 1024.000000 1024.000000"
 preserveAspectRatio="xMidYMid meet">

<g transform="translate(0.000000,1024.000000) scale(0.100000,-0.100000)"
fill="#000000" stroke="none">
<path d="M5040 8873 c-283 -47 -501 -244 -580 -523 -27 -97 -36 -261 -21 -371
16 -111 71 -274 127 -376 53 -97 54 -97 -80 -58 -113 33 -184 70 -276 144
-104 85 -151 100 -351 117 -91 8 -190 21 -220 28 -30 8 -55 13 -57 11 -2 -2
28 -66 68 -144 57 -113 81 -149 123 -187 58 -53 115 -82 197 -100 30 -6 44
-12 30 -13 -14 -1 -52 -14 -86 -30 -46 -21 -74 -45 -115 -93 -62 -75 -128
-124 -190 -142 l-43 -13 64 -21 c76 -25 224 -52 284 -52 61 0 148 24 199 53
25 15 95 66 156 114 200 157 268 201 366 232 72 24 210 51 255 51 4 0 -18 27
-50 59 -96 99 -150 189 -191 321 -20 62 -24 96 -23 200 0 108 4 136 27 205 36
109 89 195 169 274 139 137 294 201 489 201 149 0 333 -77 444 -186 99 -96
155 -212 180 -369 12 -75 13 -77 14 -29 3 138 -86 346 -199 467 -153 163 -334
238 -570 236 -63 -1 -126 -4 -140 -6z"/>
<path d="M5162 8574 c-92 -24 -163 -64 -226 -128 -103 -103 -156 -232 -156
-378 0 -223 127 -401 345 -484 142 -54 323 -30 460 61 110 74 196 216 216 361
10 67 9 94 -4 160 -43 209 -179 359 -372 409 -73 19 -192 18 -263 -1z"/>
<path d="M4760 7364 c-111 -24 -172 -63 -430 -280 -458 -384 -474 -399 -504
-454 -47 -86 -46 -143 4 -307 129 -424 129 -422 175 -469 131 -130 355 -42
355 140 0 52 -5 72 -79 320 -22 77 -40 140 -39 141 12 8 360 294 423 347 47
40 83 64 88 59 5 -5 8 -41 5 -79 -5 -100 -35 -143 -188 -271 -69 -57 -126
-112 -128 -121 -2 -10 14 -82 34 -161 28 -109 38 -165 38 -229 1 -106 -13
-152 -70 -236 -25 -36 -60 -107 -78 -157 -122 -338 -308 -732 -559 -1186 -103
-188 -105 -163 18 -231 130 -72 426 -179 566 -205 l36 -7 11 -201 12 -202
-164 -160 c-897 -876 -832 -802 -830 -935 1 -146 108 -253 254 -254 52 -1 75
4 112 24 47 25 228 199 816 783 197 196 289 295 304 326 30 60 33 139 15 371
-8 102 -13 187 -10 190 3 3 44 7 92 8 l88 4 6 -44 c3 -23 13 -124 23 -223 l16
-180 -126 -435 c-69 -239 -142 -489 -161 -555 -130 -440 -138 -471 -139 -535
0 -53 5 -75 29 -119 97 -178 330 -190 444 -21 32 48 46 93 342 1123 l149 519
-10 91 c-6 51 -19 160 -30 242 -10 83 -20 167 -22 188 l-3 38 90 30 c93 31
333 145 373 176 l22 18 -83 140 c-113 188 -236 419 -367 688 -194 396 -210
460 -210 854 l0 268 36 20 c52 28 110 99 130 157 33 102 7 201 -83 306 -43 50
-72 107 -73 143 0 8 12 27 28 42 l28 26 119 -190 c334 -530 401 -616 510 -660
l60 -24 485 3 c541 4 534 3 596 74 42 47 57 98 52 164 -6 66 -47 128 -104 159
-37 19 -59 20 -485 23 l-445 3 -66 87 c-36 48 -153 211 -260 362 -108 151
-222 301 -254 332 -73 73 -171 125 -270 143 -104 20 -620 20 -714 -1z"/>
<path d="M2665 7250 c-184 -21 -342 -129 -419 -285 -103 -212 -63 -447 106
-616 170 -170 419 -208 633 -96 83 43 184 146 223 227 87 177 77 368 -29 535
-106 169 -305 259 -514 235z"/>
<path d="M1330 6670 c0 -6 6 -10 13 -10 21 0 70 -58 131 -157 68 -109 145
-184 219 -212 56 -20 189 -51 229 -52 13 0 -3 -8 -34 -18 -78 -25 -143 -65
-209 -128 -31 -29 -61 -53 -67 -53 -19 0 -14 -12 22 -50 18 -19 44 -53 57 -76
l24 -41 88 18 c123 25 215 71 341 173 59 48 118 94 131 102 l23 15 -61 64
c-62 63 -88 105 -151 247 -40 90 -81 126 -185 160 -60 20 -91 22 -318 25 -164
2 -253 -1 -253 -7z"/>
<path d="M7945 6106 c-243 -60 -383 -325 -295 -560 22 -59 92 -143 154 -185
53 -37 153 -71 206 -71 l40 0 0 415 0 415 -27 -1 c-16 0 -50 -6 -78 -13z"/>
<path d="M8230 5389 l0 -728 -702 -3 c-387 -2 -719 0 -738 4 -61 12 -83 50
-145 245 -32 98 -73 210 -92 248 -104 206 -230 343 -405 440 -75 41 -241 100
-311 110 -42 6 -48 5 -71 -20 -28 -30 -56 -104 -56 -147 0 -41 25 -85 58 -102
15 -7 56 -24 92 -36 215 -74 338 -193 432 -416 22 -53 64 -182 94 -287 69
-244 102 -332 178 -487 98 -199 181 -316 331 -466 222 -224 446 -344 755 -406
58 -11 107 -22 109 -24 2 -2 -90 -129 -204 -281 -115 -153 -218 -292 -231
-309 l-22 -30 67 -17 c37 -10 98 -36 135 -57 38 -22 71 -40 75 -40 3 0 13 11
21 24 8 14 90 125 182 248 93 123 174 231 180 241 12 15 31 -7 177 -195 281
-364 261 -341 285 -319 27 25 161 89 203 97 18 3 33 10 33 15 0 5 -106 144
-235 310 -130 165 -238 306 -241 312 -3 9 15 17 57 26 267 55 510 189 709 390
212 213 334 442 397 741 25 121 25 421 0 540 -81 377 -289 695 -587 895 -137
91 -314 167 -464 199 l-66 14 0 -729z"/>
<path d="M2445 6003 c-48 -6 -136 -33 -178 -54 -41 -21 -175 -128 -381 -302
-98 -84 -131 -106 -137 -96 -126 204 -237 371 -265 395 -108 98 -289 47 -340
-94 -20 -56 -17 -111 11 -167 13 -27 76 -131 139 -230 63 -99 134 -211 156
-248 77 -126 152 -179 259 -180 75 0 144 32 236 110 128 109 386 313 396 313
19 0 9 -114 -15 -165 -25 -53 -102 -132 -177 -180 l-46 -30 -11 -105 c-16
-153 -53 -284 -113 -402 -66 -132 -256 -461 -442 -767 l-69 -115 28 -23 c55
-45 302 -161 431 -202 l130 -42 7 -76 c3 -42 6 -106 6 -142 0 -76 0 -76 -139
-273 -52 -73 -135 -191 -185 -263 -49 -71 -132 -189 -183 -262 -129 -184 -138
-202 -138 -293 0 -85 15 -122 73 -183 39 -40 122 -77 176 -77 18 0 56 7 85 16
70 20 120 72 235 239 146 212 312 449 438 627 65 91 125 182 133 202 12 27 15
81 15 231 l0 195 105 0 105 0 0 -722 0 -723 24 -50 c46 -97 121 -145 228 -145
109 0 194 55 239 155 17 38 19 86 19 805 l0 765 97 33 c109 38 333 141 333
154 0 4 -33 75 -74 156 -71 142 -141 297 -186 412 -125 319 -174 455 -244 682
-56 182 -128 465 -124 490 3 15 29 4 178 -78 224 -124 252 -136 311 -136 71 1
125 21 174 64 49 43 369 398 363 403 -1 1 -31 10 -65 19 -35 8 -80 26 -100 39
-49 31 -118 107 -140 152 -18 38 -28 43 -40 20 -5 -8 -55 -62 -112 -120 l-104
-105 -254 146 c-294 169 -377 210 -452 224 -51 9 -351 12 -416 3z"/>
<path d="M7291 5282 c-56 -28 -94 -83 -99 -145 -6 -73 6 -93 131 -214 l104
-103 312 0 312 0 -3 123 -3 122 -185 3 -185 2 -100 99 c-55 55 -114 106 -132
115 -42 21 -109 20 -152 -2z"/>
<path d="M7095 2526 c-190 -36 -344 -179 -395 -368 -68 -250 45 -499 275 -610
155 -74 303 -73 461 3 195 95 312 325 276 541 -50 293 -327 488 -617 434z"/>
<path d="M8723 2529 c-166 -28 -312 -138 -387 -291 -66 -136 -61 -336 12 -472
36 -69 145 -177 211 -211 159 -80 313 -83 468 -9 327 156 398 584 141 844 -71
71 -172 124 -268 139 -74 12 -104 12 -177 0z"/>
<path d="M7820 2281 c0 -5 6 -24 14 -42 14 -34 30 -111 41 -201 l6 -48 125 0
124 0 1 63 c0 53 14 123 44 215 l7 22 -181 0 c-99 0 -181 -4 -181 -9z"/>
</g>
</svg>
