<?xml version="1.0" standalone="no"?>
<!DOCTYPE svg PUBLIC "-//W3C//DTD SVG 20010904//EN"
 "http://www.w3.org/TR/2001/REC-SVG-20010904/DTD/svg10.dtd">
<svg version="1.0" xmlns="http://www.w3.org/2000/svg"
 width="1024.000000pt" height="1024.000000pt" viewBox="0 0 1024.000000 1024.000000"
 preserveAspectRatio="xMidYMid meet">

<g transform="translate(0.000000,1024.000000) scale(0.100000,-0.100000)"
fill="#000000" stroke="none">
<path d="M5165 9740 c-325 -34 -721 -191 -991 -393 -102 -77 -321 -283 -311
-293 2 -3 18 7 33 21 49 45 232 163 344 219 165 85 318 144 484 186 231 59
356 73 576 66 234 -7 325 -19 513 -65 262 -65 484 -164 712 -316 431 -287 712
-663 874 -1168 43 -137 59 -226 67 -383 l7 -140 -33 -40 c-210 -248 -640 -591
-1081 -860 -98 -60 -469 -274 -474 -274 -2 0 -42 -23 -90 -50 -48 -28 -88 -50
-90 -50 -1 0 -58 -32 -126 -71 -526 -302 -869 -582 -1160 -949 -367 -462 -591
-1001 -664 -1600 -24 -197 -17 -387 25 -665 50 -335 244 -744 482 -1015 89
-102 233 -242 307 -301 290 -227 688 -401 1029 -450 106 -15 386 -7 502 15
184 34 386 105 542 192 94 52 271 174 264 181 -2 2 -28 -9 -57 -26 -189 -106
-499 -180 -753 -181 -587 -1 -1051 280 -1383 838 -149 251 -253 534 -354 957
-97 410 -138 696 -144 1010 -5 209 -4 216 9 148 39 -205 148 -456 328 -758
266 -447 335 -587 497 -1010 94 -244 171 -411 234 -507 119 -178 301 -327 499
-409 111 -46 210 -69 353 -81 110 -10 147 -9 240 5 405 59 695 259 845 581 38
81 52 133 109 404 44 212 132 385 267 531 144 156 342 255 423 211 22 -11 39
-51 45 -105 3 -22 5 -41 5 -42 3 -6 127 57 186 94 170 108 300 294 356 510 29
114 36 296 15 402 -72 353 -323 606 -703 708 -89 24 -115 26 -278 26 -211 0
-283 -14 -430 -87 -155 -77 -248 -188 -305 -365 -17 -54 -38 -108 -46 -120
-26 -36 -87 -61 -152 -61 -45 0 -66 -5 -85 -20 -25 -20 -26 -25 -20 -84 l6
-63 -46 -26 c-53 -31 -61 -48 -46 -94 10 -31 9 -37 -10 -55 -23 -21 -22 -43 5
-85 13 -20 12 -27 -9 -60 -39 -63 -50 -100 -42 -140 17 -92 59 -134 262 -257
167 -102 234 -194 241 -332 5 -89 -17 -137 -97 -208 -221 -200 -255 -248 -366
-527 -89 -224 -166 -346 -283 -448 -70 -60 -91 -67 -41 -13 53 55 83 99 122
177 134 268 101 515 -94 702 -102 98 -160 136 -444 288 -342 184 -474 274
-630 431 -204 205 -328 439 -371 699 -30 183 -7 440 58 640 26 82 107 244 163
330 53 81 144 168 192 184 59 19 87 2 207 -130 157 -172 289 -276 427 -335 50
-21 81 -28 139 -28 130 -2 191 46 230 181 7 23 26 58 43 79 41 50 83 66 152
58 70 -8 113 8 131 51 14 35 6 93 -18 122 -11 15 -11 16 7 8 11 -4 47 -10 80
-12 51 -4 63 -2 83 17 25 23 29 67 11 119 -9 25 -8 36 5 56 34 52 60 60 196
61 99 0 132 4 158 17 55 30 58 54 21 202 -24 98 -33 161 -37 258 l-5 128 29
-8 c16 -4 58 -8 94 -8 52 1 79 7 133 32 37 18 67 34 67 36 0 3 -29 2 -64 0
-151 -13 -224 43 -186 143 6 15 77 95 158 178 81 83 171 183 200 221 58 76
159 273 192 373 49 150 77 341 79 551 2 138 -2 173 -28 303 -37 180 -52 235
-103 363 -293 743 -989 1300 -1799 1440 -109 19 -489 28 -614 15z"/>
<path d="M5165 9403 c-400 -31 -690 -131 -1184 -406 -438 -243 -643 -287 -996
-211 -304 65 -407 72 -540 39 -152 -38 -286 -142 -345 -267 -34 -71 -40 -114
-8 -53 54 103 210 205 347 228 149 26 256 4 555 -112 137 -54 217 -71 331 -71
219 0 398 56 773 244 430 215 646 300 914 360 324 72 725 84 1003 30 100 -20
286 -76 359 -108 31 -14 56 -23 56 -21 0 8 -143 93 -234 138 -279 139 -741
233 -1031 210z"/>
<path d="M5470 9027 c-3 -3 -41 -8 -85 -11 -302 -25 -664 -121 -1055 -281
-157 -64 -213 -88 -535 -232 -99 -44 -223 -96 -275 -115 -132 -49 -131 -49
-75 -42 106 12 357 88 698 213 237 86 547 170 752 204 204 34 304 41 575 40
314 -1 443 -14 651 -67 471 -119 916 -403 1116 -711 27 -40 53 -81 60 -92 27
-42 -55 213 -93 290 -91 181 -268 380 -440 493 -307 203 -640 299 -1079 311
-115 3 -212 3 -215 0z"/>
<path d="M5075 8534 c-290 -23 -545 -81 -980 -224 -445 -145 -551 -166 -815
-157 -172 7 -318 29 -372 58 -20 11 -22 11 -10 -3 19 -24 247 -124 347 -153
140 -40 207 -48 360 -42 243 9 432 60 860 230 240 95 335 127 495 167 193 49
425 80 594 80 66 0 117 2 115 4 -2 2 -56 12 -119 21 -112 16 -376 27 -475 19z"/>
<path d="M5565 8260 c-184 -19 -453 -79 -653 -146 -436 -147 -793 -361 -1120
-671 l-94 -88 -3 -180 c-2 -100 -8 -197 -15 -218 -6 -22 -10 -40 -8 -42 2 -2
52 49 113 113 316 336 682 583 1095 740 146 56 250 86 430 126 335 75 613 101
984 93 406 -9 569 -28 841 -97 83 -21 151 -37 153 -35 12 11 -73 80 -162 133
-237 142 -516 228 -862 266 -142 16 -562 19 -699 6z"/>
<path d="M2370 8061 c-178 -39 -376 -135 -532 -259 -236 -188 -423 -496 -468
-772 -6 -41 -22 -93 -34 -115 -13 -22 -50 -87 -83 -145 -350 -612 -460 -1246
-318 -1837 90 -376 309 -702 595 -888 110 -71 210 -113 416 -174 264 -78 320
-102 434 -184 189 -138 319 -342 431 -675 l49 -147 -5 100 c-18 308 -106 560
-255 734 -122 142 -278 241 -550 349 -182 72 -286 122 -368 176 -292 193 -482
538 -526 956 -40 381 20 727 190 1105 30 66 63 133 73 149 l19 29 22 -44 c55
-108 183 -252 290 -324 84 -57 213 -114 319 -142 82 -22 124 -27 283 -31 217
-5 305 5 497 54 295 76 473 166 946 479 176 117 383 249 460 294 289 170 608
310 897 395 265 78 828 206 1418 321 564 111 786 155 815 163 26 7 30 13 33
49 l3 41 -68 12 c-153 27 -507 18 -973 -25 -499 -47 -1048 -150 -1350 -255
-370 -128 -565 -224 -879 -432 -174 -116 -235 -165 -572 -459 -79 -69 -169
-146 -199 -171 -213 -172 -486 -300 -726 -341 -102 -18 -362 -22 -446 -7 -232
40 -428 164 -542 340 -56 86 -81 147 -102 250 -31 153 -5 358 66 530 128 310
427 576 737 656 129 34 309 38 428 10 250 -58 449 -248 516 -491 19 -69 21
-96 16 -200 -11 -236 -100 -402 -282 -523 -116 -78 -184 -97 -340 -96 -107 0
-141 4 -195 23 -113 39 -227 126 -286 217 -121 189 -89 420 69 501 58 29 119
34 179 14 47 -16 123 -99 132 -143 12 -63 -22 -137 -73 -158 -53 -21 -33 -40
42 -40 124 0 227 112 227 244 0 127 -93 260 -215 305 -190 71 -429 5 -540
-151 -50 -69 -92 -160 -105 -227 -15 -79 -12 -218 5 -286 49 -188 195 -364
374 -451 126 -61 188 -76 357 -81 132 -5 160 -3 235 17 228 59 396 176 519
363 179 271 201 614 57 902 -121 243 -308 395 -594 481 -78 24 -108 27 -263
30 -141 3 -191 0 -260 -15z"/>
<path d="M7214 7275 c-143 -90 -364 -207 -496 -264 -202 -86 -598 -223 -873
-301 -129 -36 -236 -71 -470 -150 -706 -241 -1210 -596 -1622 -1145 -260 -346
-466 -773 -573 -1190 -146 -566 -156 -1076 -29 -1590 129 -523 492 -1045 977
-1403 351 -260 819 -448 1284 -518 142 -21 589 -31 699 -15 266 38 476 87 674
158 565 202 1060 533 1567 1049 353 359 555 658 604 897 23 107 15 110 -47 22
-31 -44 -84 -109 -118 -145 l-61 -65 41 64 c117 181 212 458 226 665 7 94 -6
99 -47 18 -37 -73 -40 -72 -22 5 20 87 24 502 5 546 -17 38 -44 34 -86 -12
-37 -41 -60 -101 -102 -271 -68 -270 -163 -447 -363 -669 -133 -148 -410 -330
-506 -331 -27 0 -28 2 -22 35 4 19 33 96 66 171 83 194 100 315 48 347 -37 24
-229 -141 -330 -283 -154 -216 -212 -381 -249 -700 -31 -278 -57 -387 -124
-520 -166 -331 -617 -593 -1157 -674 -113 -17 -488 -21 -608 -6 -728 91 -1380
485 -1772 1070 -139 206 -271 516 -317 741 -42 206 -54 320 -55 534 -1 226 8
308 65 581 167 808 687 1580 1374 2041 241 161 460 269 1044 518 488 207 810
377 1166 614 111 74 288 202 320 232 26 24 -20 1 -111 -56z"/>
<path d="M6807 7280 c-113 -46 -387 -106 -890 -194 -526 -93 -676 -126 -927
-208 -307 -100 -624 -252 -905 -436 -121 -79 -163 -109 -305 -220 -85 -67
-324 -307 -405 -407 -233 -288 -401 -631 -490 -1000 -54 -224 -68 -350 -68
-605 0 -199 3 -242 27 -370 14 -80 37 -188 50 -240 l24 -95 1 105 c4 334 80
850 168 1140 62 204 191 484 316 685 306 495 775 913 1315 1172 324 155 640
259 1187 388 423 100 793 212 925 281 55 28 43 30 -23 4z"/>
<path d="M1994 5781 c-126 -34 -200 -77 -295 -171 -95 -95 -141 -174 -178
-310 -25 -90 -28 -232 -6 -334 28 -134 111 -273 227 -381 102 -96 226 -149
392 -167 85 -9 113 -9 179 5 309 64 525 337 528 668 2 212 -83 416 -229 549
-113 104 -237 149 -427 156 -97 3 -133 1 -191 -15z m288 -142 c140 -29 282
-143 354 -284 53 -103 69 -167 68 -285 -1 -403 -369 -645 -723 -474 -81 40
-209 170 -249 255 -44 92 -65 181 -64 266 4 338 298 588 614 522z"/>
<path d="M2213 5301 c-118 -55 -126 -226 -13 -290 138 -77 292 56 235 204 -34
90 -132 128 -222 86z"/>
<path d="M7940 5208 c309 -87 469 -166 651 -322 182 -155 339 -411 403 -659
34 -131 66 -349 67 -459 l1 -93 15 65 c25 101 24 469 -1 575 -88 380 -269 631
-561 775 -121 60 -194 83 -316 104 -112 19 -314 30 -259 14z"/>
<path d="M7500 5070 c-237 -49 -436 -179 -529 -345 -16 -27 -32 -61 -35 -75
-6 -22 -5 -21 10 5 71 127 253 238 474 290 98 23 337 28 441 10 185 -33 347
-106 506 -227 146 -112 265 -276 319 -441 l24 -72 -6 60 c-42 398 -336 703
-761 791 -117 24 -339 26 -443 4z"/>
<path d="M1541 3810 c-359 -75 -615 -337 -677 -692 -48 -275 42 -560 239 -761
117 -118 282 -209 431 -236 84 -15 260 -14 349 3 188 36 365 141 478 284 163
204 230 470 179 712 -68 332 -279 569 -595 670 -56 18 -98 23 -215 26 -80 2
-165 -1 -189 -6z m361 -249 c85 -27 203 -106 267 -178 93 -105 152 -260 155
-408 1 -106 -18 -192 -66 -295 -72 -152 -228 -277 -394 -316 -94 -22 -286 -15
-365 12 -157 55 -302 193 -370 351 -24 56 -49 180 -49 240 2 205 104 407 262
514 67 46 107 64 193 91 84 25 272 20 367 -11z"/>
<path d="M1485 3190 c-84 -42 -118 -153 -73 -239 42 -80 112 -111 198 -85 93
28 145 120 120 212 -29 111 -143 163 -245 112z"/>
<path d="M2675 2665 c5 -139 29 -328 56 -435 58 -229 124 -406 223 -595 135
-258 262 -438 445 -627 143 -148 262 -243 459 -362 34 -20 1 11 -110 107 -258
220 -482 481 -642 746 -196 323 -342 723 -400 1096 -37 231 -36 229 -31 70z"/>
<path d="M2890 2600 c0 -36 65 -310 96 -405 196 -595 540 -1059 1017 -1369
169 -110 439 -234 647 -296 241 -71 628 -119 820 -102 52 5 82 10 66 11 -55 2
-323 51 -442 80 -765 188 -1409 647 -1810 1292 -107 173 -226 415 -360 734
-21 51 -34 71 -34 55z"/>
<path d="M1583 1929 c-73 -12 -141 -40 -207 -84 -68 -45 -113 -96 -152 -172
-27 -53 -29 -67 -29 -163 0 -93 3 -111 27 -163 15 -32 51 -81 80 -111 67 -66
131 -91 238 -90 167 1 280 110 280 268 -1 110 -68 187 -168 194 -48 3 -63 0
-92 -20 -99 -67 -56 -208 64 -208 31 0 45 7 72 36 l34 35 0 -31 c0 -96 -96
-180 -206 -180 -135 0 -259 149 -240 289 20 146 136 250 324 289 149 30 342
-6 533 -102 221 -112 440 -276 723 -542 92 -88 205 -192 250 -232 86 -78 270
-222 283 -222 4 0 -18 26 -48 57 -31 32 -130 144 -219 248 -307 357 -497 536
-736 692 -161 105 -364 187 -522 212 -73 11 -224 11 -289 0z"/>
</g>
</svg>
